<?xml version="1.0" standalone="no"?>
<!DOCTYPE svg PUBLIC "-//W3C//DTD SVG 20010904//EN"
 "http://www.w3.org/TR/2001/REC-SVG-20010904/DTD/svg10.dtd">
<svg version="1.0" xmlns="http://www.w3.org/2000/svg"
 width="512.000000pt" height="512.000000pt" viewBox="0 0 512.000000 512.000000"
 preserveAspectRatio="xMidYMid meet">

<g transform="translate(0.000000,512.000000) scale(0.100000,-0.100000)"
fill="#000000" stroke="none">
<path d="M0 2560 l0 -2560 1300 0 c715 0 1300 2 1300 4 0 2 -479 280 -1065
617 l-1064 614 0 1245 0 1245 1041 600 c572 330 1055 608 1073 617 l32 17
1069 -617 1069 -617 2 -1245 2 -1245 -1064 -614 c-586 -337 -1065 -615 -1065
-617 0 -2 560 -4 1245 -4 l1245 0 0 2560 0 2560 -2560 0 -2560 0 0 -2560z"/>
<path d="M1712 4038 l-902 -521 0 -1037 0 -1038 897 -518 c494 -284 902 -517
908 -517 6 0 412 231 902 514 l892 514 0 1045 0 1045 -847 488 c-466 268 -870
501 -897 517 l-50 29 -903 -521z m588 -1538 c167 -418 307 -754 311 -747 6 11
269 645 529 1280 l94 227 123 0 c68 0 123 -3 123 -7 0 -5 -170 -435 -378 -958
l-378 -950 -149 -3 -150 -2 -359 927 c-198 511 -366 943 -373 961 l-13 32 157
0 158 0 305 -760z"/>
</g>
</svg>
